<?xml version='1.0' encoding='utf-8'?>
<svg xmlns:xlink="http://www.w3.org/1999/xlink" xmlns="http://www.w3.org/2000/svg" version="1.1" id="Layer_1" x="0px" y="0px" viewBox="0 0 500 500" style="enable-background:new 0 0 500 500;"> <style type="text/css"> .st0{fill:#1E1E1E;} .st1{opacity:0.5;} .st2{fill:#E8F7F7;} .st3{fill:#1E4C4C;} .st4{opacity:0.1;} .st5{fill-rule:evenodd;clip-rule:evenodd;fill:#FFFFFF;} .st6{fill-rule:evenodd;clip-rule:evenodd;fill:#1A7C7B;} .st7{fill:#1A7C7B;} .st8{opacity:0.2;} .st9{fill-rule:evenodd;clip-rule:evenodd;fill:#9EC10D;} .st10{opacity:0.2;clip-path:url(#SVGID_2_);} .st11{fill-rule:evenodd;clip-rule:evenodd;fill:#1E4C4C;} .st12{fill-rule:evenodd;clip-rule:evenodd;fill:#FCC020;} .st13{fill:#FCC020;} .st14{fill:#9EC10D;} </style> <rect class="st0" width="500" height="500"/> <g> <g class="st1"> <g> <path class="st2" d="M280.2,176H81c-4.2,0-7.5,3.4-7.5,7.5v129.7c0,4.2,3.4,7.5,7.5,7.5h199.1c4.2,0,7.5-3.4,7.5-7.5V183.6 C287.7,179.4,284.3,176,280.2,176z M275.3,301.6H86.5V188.3h188.8V301.6z"/> </g> <g> <rect x="147.3" y="332.3" class="st2" width="66.6" height="8.7"/> </g> <g> <path class="st3" d="M86.5,301.6h188.8V188.3H86.5V301.6z M125,196.5c1.9,0,3.5,1.5,3.5,3.5c0,1.9-1.5,3.5-3.5,3.5 c-1.9,0-3.5-1.5-3.5-3.5C121.5,198.1,123.1,196.5,125,196.5z M113.4,196.5c1.9,0,3.5,1.5,3.5,3.5c0,1.9-1.5,3.5-3.5,3.5 c-1.9,0-3.5-1.5-3.5-3.5C110,198.1,111.5,196.5,113.4,196.5z M101.9,196.5c1.9,0,3.5,1.5,3.5,3.5c0,1.9-1.5,3.5-3.5,3.5 c-1.9,0-3.5-1.5-3.5-3.5C98.4,198.1,100,196.5,101.9,196.5z"/> </g> <g> <path class="st2" d="M101.9,203.5c1.9,0,3.5-1.5,3.5-3.5c0-1.9-1.5-3.5-3.5-3.5c-1.9,0-3.5,1.5-3.5,3.5 C98.4,201.9,100,203.5,101.9,203.5z"/> </g> <g> <path class="st2" d="M113.4,203.5c1.9,0,3.5-1.5,3.5-3.5c0-1.9-1.5-3.5-3.5-3.5c-1.9,0-3.5,1.5-3.5,3.5 C110,201.9,111.5,203.5,113.4,203.5z"/> </g> <g> <path class="st2" d="M125,203.5c1.9,0,3.5-1.5,3.5-3.5c0-1.9-1.5-3.5-3.5-3.5c-1.9,0-3.5,1.5-3.5,3.5 C121.5,201.9,123.1,203.5,125,203.5z"/> </g> </g> <g class="st4"> <g> <path class="st2" d="M329.9,114.1c-0.1-3.1-2.6-5.5-5.7-5.5H171.9c-3.2,0-5.8,2.6-5.8,5.8v57.4h9.9v-53.7h144.3v13l9.4-0.1V114.1 z"/> </g> <g> <path class="st3" d="M176.1,117.9v53.7h36v-39.5l108.3-1.2v-13H176.1z M187.9,129.5c-1.5,0-2.6-1.2-2.6-2.6 c0-1.5,1.2-2.6,2.6-2.6c1.5,0,2.6,1.2,2.6,2.6C190.5,128.3,189.4,129.5,187.9,129.5z M196.7,129.5c-1.5,0-2.6-1.2-2.6-2.6 c0-1.5,1.2-2.6,2.6-2.6c1.5,0,2.6,1.2,2.6,2.6C199.4,128.3,198.2,129.5,196.7,129.5z M205.5,129.5c-1.5,0-2.6-1.2-2.6-2.6 c0-1.5,1.2-2.6,2.6-2.6c1.5,0,2.6,1.2,2.6,2.6C208.2,128.3,207,129.5,205.5,129.5z"/> </g> <g> <path class="st2" d="M187.9,124.2c-1.5,0-2.6,1.2-2.6,2.6c0,1.5,1.2,2.6,2.6,2.6c1.5,0,2.6-1.2,2.6-2.6 C190.5,125.4,189.4,124.2,187.9,124.2z"/> </g> <g> <path class="st2" d="M196.7,124.2c-1.5,0-2.6,1.2-2.6,2.6c0,1.5,1.2,2.6,2.6,2.6c1.5,0,2.6-1.2,2.6-2.6 C199.4,125.4,198.2,124.2,196.7,124.2z"/> </g> <g> <path class="st2" d="M205.5,124.2c-1.5,0-2.6,1.2-2.6,2.6c0,1.5,1.2,2.6,2.6,2.6c1.5,0,2.6-1.2,2.6-2.6 C208.2,125.4,207,124.2,205.5,124.2z"/> </g> </g> <g class="st1"> <g> <g> <path class="st5" d="M140.6,115.9c0-20.6-16.7-37.2-37.2-37.2c-20.6,0-37.2,16.7-37.2,37.2c0,20.6,16.7,37.2,37.2,37.2 C123.9,153.1,140.6,136.5,140.6,115.9z"/> </g> </g> <g> <g> <rect x="105.9" y="94.4" transform="matrix(0.9323 0.3617 -0.3617 0.9323 45.9035 -31.4507)" class="st6" width="2.2" height="24.9"/> </g> </g> <g> <g> <rect x="94.2" y="106.8" transform="matrix(0.2783 -0.9605 0.9605 0.2783 -42.0166 174.8495)" class="st6" width="2.2" height="17.1"/> </g> </g> <g> <g> <g> <path class="st7" d="M104.2,83.4c0-0.7-0.6-1.4-1.4-1.4c-0.7,0-1.4,0.6-1.4,1.4c0,0.7,0.6,1.4,1.4,1.4 C103.6,84.7,104.2,84.1,104.2,83.4z"/> </g> </g> <g> <g> <path class="st7" d="M104.2,146.7c0-0.8-0.6-1.4-1.4-1.4c-0.7,0-1.4,0.6-1.4,1.4c0,0.7,0.6,1.4,1.4,1.4 C103.6,148.1,104.2,147.5,104.2,146.7z"/> </g> </g> </g> <g> <g> <g> <path class="st7" d="M71.2,113.7c-0.7,0-1.4,0.6-1.4,1.4c0,0.7,0.6,1.4,1.4,1.4c0.7,0,1.4-0.6,1.4-1.4 C72.5,114.3,71.9,113.7,71.2,113.7z"/> </g> </g> <g> <g> <path class="st7" d="M134.5,113.7c-0.7,0-1.4,0.6-1.4,1.4c0,0.7,0.6,1.4,1.4,1.4c0.8,0,1.4-0.6,1.4-1.4 C135.9,114.3,135.3,113.7,134.5,113.7z"/> </g> </g> </g> </g> <g class="st8"> <g> <path class="st2" d="M424.5,135.9H225.3c-4.2,0-7.5,3.4-7.5,7.5v27.6h13v-22.9h188.8v113.3H297.2v19.1h127.3 c4.2,0,7.5-3.4,7.5-7.5V143.4C432,139.3,428.6,135.9,424.5,135.9z"/> </g> <g> <rect x="297.2" y="292.2" class="st2" width="61" height="8.7"/> </g> <g> <path class="st3" d="M419.6,148.2H230.8v22.9h66.4v90.4h122.4V148.2z M246.2,163.3c-1.9,0-3.5-1.5-3.5-3.5c0-1.9,1.5-3.5,3.5-3.5 c1.9,0,3.5,1.5,3.5,3.5C249.7,161.8,248.1,163.3,246.2,163.3z M257.8,163.3c-1.9,0-3.5-1.5-3.5-3.5c0-1.9,1.5-3.5,3.5-3.5 c1.9,0,3.5,1.5,3.5,3.5C261.2,161.8,259.7,163.3,257.8,163.3z M269.3,163.3c-1.9,0-3.5-1.5-3.5-3.5c0-1.9,1.5-3.5,3.5-3.5 s3.5,1.5,3.5,3.5C272.7,161.8,271.2,163.3,269.3,163.3z"/> </g> <g> <path class="st2" d="M246.2,156.4c-1.9,0-3.5,1.5-3.5,3.5c0,1.9,1.5,3.5,3.5,3.5c1.9,0,3.5-1.5,3.5-3.5 C249.7,157.9,248.1,156.4,246.2,156.4z"/> </g> <g> <path class="st2" d="M257.8,156.4c-1.9,0-3.5,1.5-3.5,3.5c0,1.9,1.5,3.5,3.5,3.5c1.9,0,3.5-1.5,3.5-3.5 C261.2,157.9,259.7,156.4,257.8,156.4z"/> </g> <g> <path class="st2" d="M269.3,156.4c-1.9,0-3.5,1.5-3.5,3.5c0,1.9,1.5,3.5,3.5,3.5s3.5-1.5,3.5-3.5 C272.7,157.9,271.2,156.4,269.3,156.4z"/> </g> </g> <g> <g> <path class="st2" d="M153.4,371.9h199.1c4.2,0,7.5-3.4,7.5-7.5V234.7c0-4.2-3.4-7.5-7.5-7.5H153.4c-4.2,0-7.5,3.4-7.5,7.5v129.7 C145.8,368.6,149.2,371.9,153.4,371.9z"/> </g> </g> <g> <g> <rect x="219.6" y="383.5" class="st2" width="66.6" height="8.7"/> </g> </g> <g> <g> <g> <rect x="158.8" y="239.5" class="st3" width="188.8" height="113.3"/> </g> </g> </g> <g> <g> <path class="st9" d="M345.2,362c0-2.7-2.2-4.9-4.9-4.9s-4.9,2.2-4.9,4.9c0,2.7,2.2,4.9,4.9,4.9S345.2,364.6,345.2,362z"/> </g> </g> <g> <defs> <path id="SVGID_1_" d="M153.4,371.9h199.1c4.2,0,7.5-3.4,7.5-7.5V234.7c0-4.2-3.4-7.5-7.5-7.5H153.4c-4.2,0-7.5,3.4-7.5,7.5 v129.7C145.8,368.6,149.2,371.9,153.4,371.9z"/> </defs> <clipPath id="SVGID_2_"> <use xlink:href="#SVGID_1_" style="overflow:visible;"/> </clipPath> <g class="st10"> <g> <path class="st11" d="M357.4,195.7c0.4-1.2,0.9-2.3,1.2-3.4c0.2-0.6,0.5-1.1,1.4-1c2.6,0.4,5.3,0.7,7.9,1 c0.5,0.1,0.9,0.4,0.9,1.1c0.2,4,1.6,7.6,4.2,10.6c1.6,1.9,3.5,3.3,5.9,4.2c4.9,1.8,9.5,1.2,14.1-1.1c0.5-0.3,1-0.1,1.3,0.2 c1.7,2.2,3.4,4.5,5.1,6.7c0.5,0.7-0.1,1-0.5,1.4c-1.6,1.7-2.7,3.7-3.3,5.9c-1.4,5,0.1,9.4,2.7,13.6c1.2,2,2.9,3.6,5.1,4.6 c0.7,0.4,1.5,0.6,2.2,0.9c0.2,0.1,0.5,0.5,0.4,0.7c-0.2,2.5-0.5,5-0.8,7.5c0,0.2,0,0.4,0,0.6c-0.2,0.6-0.4,1.1-1.2,1.1 c-4.2,0.1-8,1.3-11.1,4.3c-1.4,1.4-2.5,3-3.1,4.9c-0.7,2.1-0.9,4.2-0.6,6.4c0.3,2.4,1,4.5,2.2,6.6c0.4,0.6,0.3,1.1-0.1,1.4 c-2.2,1.7-4.4,3.4-6.6,5.1c-0.2,0.1-0.7,0.1-0.9,0c-0.7-0.4-1.3-1.1-2-1.5c-2.9-1.8-6.1-2.3-9.5-1.8c-3.1,0.4-6,1.2-8.5,3.1 c-2.4,1.8-3.9,4.3-4.8,7.2c-0.3,1-0.5,1.3-1.7,1.2c-2.5-0.3-5.1-0.6-7.6-0.9c-0.6-0.1-1-0.4-1-1.1c-0.2-4-1.6-7.5-4.1-10.6 c-1.5-1.7-3.2-3.2-5.3-4c-5-1.9-9.9-1.6-14.6,0.9c-0.7,0.4-1.2,0.2-1.6-0.3c-1.5-1.9-3-3.8-4.5-5.8c-0.8-1.1-0.6-1.2,0.2-2.3 c1.2-1.6,2.3-3.3,3-5.2c1.2-3.1,0.8-6.3-0.3-9.4c-1.6-4.7-4.9-7.6-9.6-9c-0.7-0.2-1.2-0.6-1.1-1.5c0.3-2.6,0.6-5.2,1-7.8 c0.1-0.6,0.4-1,1.1-1c4-0.2,7.6-1.6,10.7-4.3c1.6-1.4,3-3,3.8-5.1c1.5-3.8,1.3-7.6-0.2-11.3c-0.3-0.9-0.8-1.7-1.2-2.5 c-0.3-0.5-0.2-1,0.2-1.3c2.1-1.7,4.3-3.3,6.5-5c0.5-0.4,0.8-0.2,1.2,0.1c0.6,0.5,1.2,1,1.8,1.4c3.8,2.3,7.8,2.4,11.9,1.4 c2.6-0.6,5-1.6,6.9-3.4C355.6,198.1,356.4,196.8,357.4,195.7z M375.3,201.8c-9.7-5.4-21.6-2.1-27.1,7.4 c-5.5,9.6-2.1,21.6,7.4,27c9.6,5.5,21.6,2.2,27.1-7.4C388.1,219.3,384.8,207.4,375.3,201.8z"/> </g> </g> </g> <g> <path class="st2" d="M421.2,420.2h-51.1l0,0c0-12.8,10.3-23.1,23.1-23.1h4.9C410.9,397.1,421.2,407.4,421.2,420.2L421.2,420.2z"/> </g> <g> <path class="st2" d="M372.3,420.2h-29.1c-6.9,0-12.6-5.6-12.6-12.6v-9.7c0-3.1-2.5-5.6-5.6-5.6h-17.4v-7h17.4 c6.9,0,12.6,5.6,12.6,12.6v9.7c0,3.1,2.5,5.6,5.6,5.6h29.1V420.2z"/> </g> <g> <g> <g> <path class="st12" d="M366.3,173c0.4-1.2,0.9-2.4,1.3-3.5c0.2-0.7,0.5-1.1,1.4-1c2.7,0.4,5.4,0.7,8.1,1c0.6,0.1,0.9,0.4,0.9,1.1 c0.2,4.1,1.6,7.8,4.3,10.9c1.6,1.9,3.6,3.4,6.1,4.3c5,1.8,9.8,1.2,14.4-1.1c0.6-0.3,1-0.1,1.3,0.2c1.8,2.3,3.5,4.6,5.2,6.9 c0.5,0.7-0.1,1-0.5,1.4c-1.6,1.8-2.8,3.8-3.4,6.1c-1.4,5.1,0.1,9.7,2.7,13.9c1.3,2.1,3,3.7,5.2,4.7c0.7,0.4,1.5,0.6,2.3,0.9 c0.2,0.1,0.5,0.5,0.4,0.8c-0.2,2.6-0.6,5.1-0.8,7.6c0,0.2,0,0.4,0,0.6c-0.2,0.6-0.4,1.1-1.2,1.1c-4.3,0.1-8.2,1.4-11.4,4.4 c-1.4,1.4-2.5,3.1-3.2,5.1c-0.7,2.2-0.9,4.3-0.6,6.5c0.3,2.4,1.1,4.6,2.2,6.7c0.4,0.6,0.4,1.1-0.1,1.5c-2.2,1.8-4.5,3.5-6.8,5.2 c-0.2,0.1-0.7,0.1-0.9,0c-0.7-0.5-1.3-1.1-2-1.5c-3-1.8-6.3-2.3-9.8-1.9c-3.1,0.4-6.1,1.3-8.7,3.2c-2.5,1.9-4,4.5-4.9,7.4 c-0.3,1.1-0.5,1.4-1.7,1.2c-2.6-0.3-5.2-0.6-7.8-0.9c-0.6-0.1-1-0.4-1-1.1c-0.2-4.1-1.6-7.7-4.2-10.8c-1.5-1.8-3.3-3.2-5.4-4.1 c-5.1-2-10.2-1.6-15,0.9c-0.7,0.4-1.2,0.2-1.6-0.4c-1.6-1.9-3.1-3.9-4.7-6c-0.8-1.1-0.6-1.2,0.2-2.4c1.2-1.6,2.3-3.4,3.1-5.3 c1.2-3.2,0.8-6.4-0.3-9.6c-1.7-4.8-5-7.8-9.8-9.2c-0.8-0.2-1.2-0.6-1.1-1.5c0.3-2.6,0.6-5.3,1-8c0.1-0.6,0.4-1,1.1-1 c4.1-0.2,7.8-1.6,11-4.4c1.7-1.4,3.1-3.1,3.9-5.2c1.6-3.9,1.3-7.8-0.2-11.6c-0.4-0.9-0.8-1.7-1.2-2.6c-0.3-0.5-0.2-1,0.2-1.3 c2.2-1.7,4.4-3.4,6.6-5.1c0.5-0.4,0.8-0.2,1.2,0.1c0.6,0.5,1.2,1.1,1.9,1.5c3.8,2.3,8,2.4,12.2,1.4c2.7-0.6,5.1-1.7,7.1-3.5 C364.5,175.5,365.3,174.1,366.3,173z M377.8,199.9c-9.9-5.5-22.2-2.2-27.7,7.6c-5.6,9.8-2.2,22.1,7.6,27.7 c9.8,5.6,22.1,2.2,27.7-7.6C390.9,217.9,387.5,205.6,377.8,199.9z"/> </g> </g> </g> <g> <path class="st13" d="M177.7,251.2c0-1.9-1.5-3.5-3.5-3.5c-1.9,0-3.5,1.5-3.5,3.5c0,1.9,1.5,3.5,3.5,3.5 C176.2,254.6,177.7,253.1,177.7,251.2z"/> </g> <g> <path class="st14" d="M189.2,251.2c0-1.9-1.5-3.5-3.5-3.5c-1.9,0-3.5,1.5-3.5,3.5c0,1.9,1.5,3.5,3.5,3.5 C187.7,254.6,189.2,253.1,189.2,251.2z"/> </g> <g> <path class="st2" d="M200.8,251.2c0-1.9-1.5-3.5-3.5-3.5c-1.9,0-3.5,1.5-3.5,3.5c0,1.9,1.5,3.5,3.5,3.5 C199.2,254.6,200.8,253.1,200.8,251.2z"/> </g> <g> <g> <rect x="199" y="304.5" class="st2" width="103.8" height="22.7"/> </g> <g> <path class="st11" d="M222.8,316.2c0-2.6-2.1-4.7-4.7-4.7c-2.6,0-4.7,2.1-4.7,4.7s2.1,4.7,4.7,4.7 C220.8,320.9,222.8,318.8,222.8,316.2z"/> </g> <g> <path class="st11" d="M236.5,316.2c0-2.6-2.1-4.7-4.7-4.7c-2.6,0-4.7,2.1-4.7,4.7s2.1,4.7,4.7,4.7 C234.4,320.9,236.5,318.8,236.5,316.2z"/> </g> <g> <path class="st11" d="M250.2,316.2c0-2.6-2.1-4.7-4.7-4.7c-2.6,0-4.7,2.1-4.7,4.7s2.1,4.7,4.7,4.7 C248.1,320.9,250.2,318.8,250.2,316.2z"/> </g> <g> <path class="st11" d="M263.8,316.2c0-2.6-2.1-4.7-4.7-4.7c-2.6,0-4.7,2.1-4.7,4.7s2.1,4.7,4.7,4.7 C261.7,320.9,263.8,318.8,263.8,316.2z"/> </g> <g> <path class="st11" d="M277.5,316.2c0-2.6-2.1-4.7-4.7-4.7s-4.7,2.1-4.7,4.7s2.1,4.7,4.7,4.7S277.5,318.8,277.5,316.2z"/> </g> <g> <path class="st11" d="M291.2,316.2c0-2.6-2.1-4.7-4.7-4.7s-4.7,2.1-4.7,4.7s2.1,4.7,4.7,4.7S291.2,318.8,291.2,316.2z"/> </g> </g> <g> <g> <rect x="199" y="270.3" class="st2" width="103.8" height="22.7"/> </g> </g> <g> <path class="st9" d="M212.3,286.3h9.1c2.2,0,3.9-1.8,3.9-3.9l0,0c0-2.2-1.8-3.9-3.9-3.9h-9.1c-2.2,0-3.9,1.8-3.9,3.9l0,0 C208.3,284.5,210.1,286.3,212.3,286.3z"/> </g> <g> <path class="st9" d="M265.6,286.3h12.5c2.2,0,3.9-1.8,3.9-3.9l0,0c0-2.2-1.8-3.9-3.9-3.9h-12.5c-2.2,0-3.9,1.8-3.9,3.9l0,0 C261.7,284.5,263.5,286.3,265.6,286.3z"/> </g> <g> <path class="st9" d="M233.2,286.3h8.8c2.2,0,3.9-1.8,3.9-3.9l0,0c0-2.2-1.8-3.9-3.9-3.9h-8.8c-2.2,0-3.9,1.8-3.9,3.9l0,0 C229.3,284.5,231,286.3,233.2,286.3z"/> </g> <g> <path class="st9" d="M252,286.3h2.8c2.2,0,3.9-1.8,3.9-3.9l0,0c0-2.2-1.8-3.9-3.9-3.9H252c-2.2,0-3.9,1.8-3.9,3.9l0,0 C248.1,284.5,249.8,286.3,252,286.3z"/> </g> </g> </svg>